# xmcd CD database file
#
# Track frame offsets:
#	150
#	19259
#	36625
#	54506
#	67932
#	85999
#	103827
#	121295
#	138300
#	160822
#	175678
#	192630
#	210021
#	226060
#	241245
#	260350
#	280337
#	295622
#	310872
#	326136
#	341386
#
# Disc length: 4761 seconds
#
# Revision: 0
# Processed by: cddbd v1.5PL3 Copyright (c) Steve Scherf et al.
# Submitted via: CDex 1.50beta10
#
DISCID=29129715
DTITLE=Milionário e José Rico - Decida/O Dono Do Mundo
DYEAR=2004
DGENRE=Country
TTITLE0=01 - Decida
TTITLE1=02 - Moça
TTITLE2=03 - Você Vai Ver
TTITLE3=04 - Canarinho Do Peito Amarelo
TTITLE4=05 - Porque Chora A Tarde
TTITLE5=06 - Fim De Noite
TTITLE6=07 - Meu Grito
TTITLE7=08 - Agenda Rabiscada
TTITLE8=09 - Gita
TTITLE9=10 - Coração De Luto
TTITLE10=11 - Milagre Da Flexa
TTITLE11=12 - Meu Pranto
TTITLE12=14 - Ancestrais
TTITLE13=13 - Meu Primeiro Amor (Lejania)
TTITLE14=15- A Carta
TTITLE15=16 - Minha Solidão
TTITLE16=17 - O Dono do Mundo
TTITLE17=18 - Memória Esquecida
TTITLE18=19 - Quanta Saudade
TTITLE19=20 - Memória Esquecida
TTITLE20=21 - O Seu Retrato
EXTD=YEAR: 2004
EXTT0=
EXTT1=
EXTT2=
EXTT3=
EXTT4=
EXTT5=
EXTT6=
EXTT7=
EXTT8=
EXTT9=
EXTT10=
EXTT11=
EXTT12=
EXTT13=
EXTT14=
EXTT15=
EXTT16=
EXTT17=
EXTT18=
EXTT19=
EXTT20=
PLAYORDER=
